# xmcd
#
# Track frame offsets:
#	182
#	11260
#	21890
#	32655
#	43030
#	51827
#	63985
#	81217
#	90352
#	98590
#	108740
#	120702
#	131130
#	140992
#	151240
#	164082
#	176677
#	189037
#	198962
#	208612
#
# Disc length: 2938 seconds
#
# Revision: 5
# Processed by: cddbd v1.5.2PL0 Copyright (c) Steve Scherf et al.
# Submitted via: audiograbber 1.83.01
#
DISCID=0e0b7814
DTITLE=Fats Domino - The Fat Man Sings
DYEAR=2000
DGENRE=Blues
TTITLE0=Ain't That A Shame
TTITLE1=All By Myself
TTITLE2=Blueberry Hill
TTITLE3=Margie
TTITLE4=I Hear You Knocking
TTITLE5=Don't Blame It On Me
TTITLE6=You Always Hurt The One You Love
TTITLE7=Walking To New Orleans
TTITLE8=Honey Chile
TTITLE9=My Happiness
TTITLE10=Sick And Tired
TTITLE11=Country Boy
TTITLE12=Your Cheatin' Heart
TTITLE13=You Win Again
TTITLE14=One Night
TTITLE15=It Keeps Rainin' (Tears From My Eyes)
TTITLE16=Trouble Blues
TTITLE17=Nothing New (Same Old Thing)
TTITLE18=My Blue Heaven
TTITLE19=The Fat Man
EXTD=
EXTT0=(Bartholomew/Domino)
EXTT1=(Bartholomew/Domino)
EXTT2=(Lewis/Rose/Stock)
EXTT3=(Conrad/Davis/Robinson)
EXTT4=(Bartholomew/King)
EXTT5=(Bartholomew/Domino)
EXTT6=(Fisher/Roberts)
EXTT7=(Bartholomew/Domino/Guidry)
EXTT8=
EXTT9=(Bergantine/Peterson)
EXTT10=(Bartholomew/Kenner)
EXTT11=(Bartholomew/Domino)
EXTT12=(Williams)
EXTT13=(Williams)
EXTT14=(Bartholomew/King/Steinman)
EXTT15=(Bartholomew/Domino/Guidry)
EXTT16=(Hooker)
EXTT17=(Bartholomew/Domino/Jessup/Maddux)
EXTT18=(Donaldson/Whiting)
EXTT19=(Bartholomew/Domino)
PLAYORDER=
